HIERARCHY
ROOT Hips
{
	OFFSET 0.00000 0.00000 0.00000
	CHANNELS 6 Xposition Yposition Zposition Zrotation Yrotation Xrotation 
	JOINT LHipJoint
	{
		OFFSET 0 0 0
		CHANNELS 3 Zrotation Yrotation Xrotation
		JOINT LeftUpLeg
		{
			OFFSET 1.46561 -1.72757 0.83774
			CHANNELS 3 Zrotation Yrotation Xrotation
			JOINT LeftLeg
			{
				OFFSET 2.48915 -6.83890 0.00000
				CHANNELS 3 Zrotation Yrotation Xrotation
				JOINT LeftFoot
				{
					OFFSET 2.60555 -7.15868 0.00000
					CHANNELS 3 Zrotation Yrotation Xrotation
					JOINT LeftToeBase
					{
						OFFSET 0.19248 -0.52884 2.26738
						CHANNELS 3 Zrotation Yrotation Xrotation
						End Site
						{
							OFFSET 0.00000 -0.00000 1.17015
						}
					}
				}
			}
		}
	}
	JOINT RHipJoint
	{
		OFFSET 0 0 0
		CHANNELS 3 Zrotation Yrotation Xrotation
		JOINT RightUpLeg
		{
			OFFSET -1.46918 -1.72757 0.83774
			CHANNELS 3 Zrotation Yrotation Xrotation
			JOINT RightLeg
			{
				OFFSET -2.49034 -6.84216 0.00000
				CHANNELS 3 Zrotation Yrotation Xrotation
				JOINT RightFoot
				{
					OFFSET -2.65971 -7.30750 0.00000
					CHANNELS 3 Zrotation Yrotation Xrotation
					JOINT RightToeBase
					{
						OFFSET -0.19227 -0.52827 2.30785
						CHANNELS 3 Zrotation Yrotation Xrotation
						End Site
						{
							OFFSET -0.00000 -0.00000 1.18972
						}
					}
				}
			}
		}
	}
	JOINT LowerBack
	{
		OFFSET 0 0 0
		CHANNELS 3 Zrotation Yrotation Xrotation
		JOINT Spine
		{
			OFFSET 0.02432 2.19909 -0.28000
			CHANNELS 3 Zrotation Yrotation Xrotation
			JOINT Spine1
			{
				OFFSET 0.03714 2.21816 -0.15261
				CHANNELS 3 Zrotation Yrotation Xrotation
				JOINT Neck
				{
					OFFSET 0 0 0
					CHANNELS 3 Zrotation Yrotation Xrotation
					JOINT Neck1
					{
						OFFSET -0.01896 1.56165 0.21681
						CHANNELS 3 Zrotation Yrotation Xrotation
						JOINT Head
						{
							OFFSET 0.02744 1.56009 0.06764
							CHANNELS 3 Zrotation Yrotation Xrotation
							End Site
							{
								OFFSET 0.01212 1.60574 0.00298
							}
						}
					}
				}
				JOINT LeftShoulder
				{
					OFFSET 0 0 0
					CHANNELS 3 Zrotation Yrotation Xrotation
					JOINT LeftArm
					{
						OFFSET 3.05595 1.48048 -0.60794
						CHANNELS 3 Zrotation Yrotation Xrotation
						JOINT LeftForeArm
						{
							OFFSET 5.20607 -0.00000 -0.00000
							CHANNELS 3 Zrotation Yrotation Xrotation
							JOINT LeftHand
							{
								OFFSET 3.39961 -0.00000 0.00000
								CHANNELS 3 Zrotation Yrotation Xrotation
								JOINT LeftFingerBase
								{
									OFFSET 0 0 0
									CHANNELS 3 Zrotation Yrotation Xrotation
									JOINT LeftHandIndex1
									{
										OFFSET 0.51969 -0.00000 0.00000
										CHANNELS 3 Zrotation Yrotation Xrotation
										End Site
										{
											OFFSET 0.41899 -0.00000 0.00000
										}
									}
								}
								JOINT LThumb
								{
									OFFSET 0 0 0
									CHANNELS 3 Zrotation Yrotation Xrotation
									End Site
									{
										OFFSET 0.42539 -0.00000 0.42539
									}
								}
							}
						}
					}
				}
				JOINT RightShoulder
				{
					OFFSET 0 0 0
					CHANNELS 3 Zrotation Yrotation Xrotation
					JOINT RightArm
					{
						OFFSET -2.99052 1.57608 -0.69102
						CHANNELS 3 Zrotation Yrotation Xrotation
						JOINT RightForeArm
						{
							OFFSET -5.32214 -0.00000 0.00000
							CHANNELS 3 Zrotation Yrotation Xrotation
							JOINT RightHand
							{
								OFFSET -3.51208 -0.00000 0.00000
								CHANNELS 3 Zrotation Yrotation Xrotation
								JOINT RightFingerBase
								{
									OFFSET 0 0 0
									CHANNELS 3 Zrotation Yrotation Xrotation
									JOINT RightHandIndex1
									{
										OFFSET -0.58668 -0.00000 0.00000
										CHANNELS 3 Zrotation Yrotation Xrotation
										End Site
										{
											OFFSET -0.47300 -0.00000 0.00000
										}
									}
								}
								JOINT RThumb
								{
									OFFSET 0 0 0
									CHANNELS 3 Zrotation Yrotation Xrotation
									End Site
									{
										OFFSET -0.48022 -0.00000 0.48022
									}
								}
							}
						}
					}
				}
			}
		}
	}
}
MOTION
Frames: 8
Frame Time: .0083333
0.6513 17.447 -14.0888 0 0 0 0 0 0 -21 0 0 0 0 0 0 0 0 0 0 0 0 0 0 21 0 0 0 0 0 0 0 0 0 0 0 0 0 0 0 0 0 0 0 0 0 0 -16 0 0 21 0 0 11 0 0 0 -8 0 0 0 0 0 0 0 0 0 0 0 0 0 0 0 0 0 0 0 0 8 0 0 0 0 0 0 0 0 0 0 0 0 0 0 0 0 0
0.6513 17.4470 -14.0888 -3.2691 -2.0219 8.9856 0.0000 0.0000 0.0000 -17.3557 2.9527 -21.0413 1.6731 8.1490 23.1676 0.4582 1.7304 -13.5325 0.1797 -2.7308 -7.5301 0.0000 0.0000 0.0000 19.7702 4.3557 -20.3587 -2.1859 -9.2429 26.5583 -0.7236 4.4351 -15.1841 -0.0239 -0.9989 2.7459 1.6153 0.2545 0.1569 2.0495 0.2448 3.6035 1.2121 0.1358 3.6158 -1.9376 0.4005 -14.5012 -0.2124 1.1513 27.2850 0.4125 0.2922 11.2330 -0.0000 0.0000 0.0000 -85.2846 -6.4421 22.0441 9.7754 -16.3876 -1.4109 -0.0000 0.0000 -2.4509 23.2664 -0.0662 -0.0285 -7.1250 0.0000 -0.0000 -2.5983 29.9026 0.9579 -0.0000 0.0000 0.0000 86.0003 10.3095 8.7836 -13.9612 22.6791 -2.8131 0.0000 0.0000 30.5845 -21.6465 -25.1293 9.5664 7.1250 -0.0000 -0.0000 8.7520 -56.5432 -2.4900
0.6509 17.4435 -14.0861 -3.2619 -2.1101 8.8949 0.0000 0.0000 0.0000 -17.3502 2.9367 -20.9491 1.6857 8.1781 23.2564 0.4574 1.8655 -13.5911 0.1785 -2.7215 -7.5044 0.0000 0.0000 0.0000 19.7559 4.4549 -20.3297 -2.2325 -9.3344 26.8469 -0.7221 4.4660 -15.1663 -0.0170 -0.8418 2.3135 1.6082 0.2599 0.2370 2.0445 0.2538 3.6419 1.2109 0.1401 3.6103 -1.8940 0.4391 -14.5674 -0.3023 1.2234 27.3711 0.3827 0.3169 11.2795 0.0000 0.0000 0.0000 -85.1792 -6.3982 21.9784 9.6977 -16.2653 -1.3891 -0.0000 0.0000 -2.3080 23.2258 -0.0322 -0.0138 -7.1250 0.0000 -0.0000 -2.6312 29.9396 0.9678 0.0000 0.0000 0.0000 86.0463 10.3214 8.9865 -13.9424 22.6523 -2.8059 0.0000 0.0000 30.6011 -21.7068 -25.0886 9.5810 7.1250 -0.0000 -0.0000 8.6700 -56.5142 -2.4604
0.6493 17.4393 -14.0815 -3.2683 -2.1646 8.7977 0.0000 0.0000 0.0000 -17.3249 2.8918 -20.8210 1.6954 8.2005 23.3247 0.4557 2.0291 -13.6527 0.1836 -2.7600 -7.6112 0.0000 0.0000 0.0000 19.7658 4.5320 -20.1612 -2.2304 -9.3303 26.8341 -0.7167 4.3667 -15.1135 -0.0114 -0.6905 1.8976 1.6252 0.2533 0.2821 2.0437 0.2449 3.6820 1.2004 0.1363 3.6265 -1.9384 0.4724 -14.5189 -0.3033 1.2821 27.3978 0.3979 0.3384 11.2793 0.0000 -0.0000 0.0000 -85.0867 -6.3594 21.8398 9.6014 -16.1137 -1.3622 -0.0000 0.0000 -2.0558 23.4296 -0.6510 -0.2821 -7.1250 0.0000 -0.0000 -2.4554 29.2664 0.9424 0.0000 -0.0000 0.0000 86.1053 10.3691 9.1150 -13.9028 22.5956 -2.7907 0.0000 0.0000 30.6620 -21.6592 -25.0391 9.5409 7.1250 -0.0000 -0.0000 8.6985 -56.4534 -2.4557
0.6446 17.4366 -14.0734 -3.2489 -2.1638 8.7180 0.0000 0.0000 0.0000 -17.3223 2.8849 -20.7270 1.7049 8.2223 23.3914 0.4581 2.0933 -13.7187 0.1884 -2.7952 -7.7090 0.0000 0.0000 0.0000 19.7468 4.6375 -20.0423 -2.2245 -9.3188 26.7976 -0.7110 4.2518 -15.0591 -0.0154 -0.8017 2.2032 1.6155 0.2302 0.2847 2.0464 0.2133 3.7127 1.2079 0.1203 3.6572 -1.9537 0.5091 -14.5226 -0.3323 1.3484 27.4956 0.3995 0.3619 11.3170 0.0000 -0.0000 0.0000 -85.0307 -6.3235 21.5539 9.5427 -16.0211 -1.3460 -0.0000 0.0000 -1.8537 23.3964 -0.6738 -0.2915 -7.1250 0.0000 -0.0000 -2.4809 29.2416 0.9537 0.0000 -0.0000 0.0000 86.1309 10.3606 9.3428 -13.8822 22.5661 -2.7828 0.0000 0.0000 30.7162 -21.6279 -24.9528 9.4958 7.1250 -0.0000 -0.0000 8.6937 -56.3584 -2.4343
0.6402 17.4336 -14.0656 -3.2423 -2.1655 8.6343 0.0000 0.0000 0.0000 -17.3047 2.8686 -20.6212 1.7137 8.2423 23.4525 0.4594 2.1686 -13.7783 0.1928 -2.8276 -7.7992 0.0000 0.0000 0.0000 19.7567 4.6947 -19.8431 -2.1977 -9.2663 26.6319 -0.6995 4.1210 -14.9436 -0.0165 -0.8304 2.2823 1.6207 0.2088 0.2891 2.0490 0.1839 3.7441 1.2071 0.1059 3.6876 -1.9708 0.5434 -14.5185 -0.3566 1.4104 27.5927 0.4024 0.3838 11.3530 -0.0000 -0.0000 0.0000 -84.9604 -6.2954 21.2802 9.4402 -15.8592 -1.3178 -0.0000 0.0000 -1.5681 23.4780 -1.1206 -0.4867 -7.1250 0.0000 -0.0000 -2.4081 28.7547 0.9535 -0.0000 -0.0000 0.0000 86.1728 10.3658 9.5231 -13.8544 22.5262 -2.7721 0.0000 0.0000 30.7851 -21.6084 -24.8750 9.4594 7.1250 -0.0000 -0.0000 8.6801 -56.2746 -2.4128
0.6347 17.4310 -14.0562 -3.2324 -2.1394 8.5572 0.0000 0.0000 0.0000 -17.2858 2.8492 -20.5156 1.7213 8.2596 23.5055 0.4617 2.2188 -13.8368 0.1975 -2.8614 -7.8932 0.0000 0.0000 0.0000 19.7734 4.7261 -19.5925 -2.1513 -9.1744 26.3423 -0.6863 3.9556 -14.8102 -0.0188 -0.8860 2.4353 1.6263 0.1801 0.2670 2.0518 0.1440 3.7701 1.2059 0.0863 3.7275 -1.9930 0.5759 -14.5128 -0.3695 1.4681 27.7128 0.4099 0.4043 11.3974 -0.0000 0.0000 0.0000 -84.8962 -6.2740 20.9504 9.3171 -15.6644 -1.2844 -0.0000 0.0000 -1.2159 23.6057 -1.7441 -0.7620 -7.1250 0.0000 -0.0000 -2.2991 28.0739 0.9473 -0.0000 0.0000 0.0000 86.2160 10.3591 9.6928 -13.8281 22.4885 -2.7620 0.0000 0.0000 30.8621 -21.5795 -24.7936 9.4173 7.1250 -0.0000 -0.0000 8.6751 -56.1851 -2.3925
0.6278 17.4284 -14.0453 -3.2186 -2.0881 8.4866 0.0000 0.0000 0.0000 -17.2655 2.8225 -20.4144 1.7292 8.2777 23.5609 0.4652 2.2468 -13.8984 0.2019 -2.8933 -7.9819 0.0000 0.0000 0.0000 19.7940 4.7371 -19.3090 -2.0964 -9.0640 25.9956 -0.6765 3.7778 -14.7161 -0.0214 -0.9434 2.5932 1.6308 0.1451 0.2206 2.0542 0.0952 3.7902 1.2048 0.0622 3.7751 -2.0146 0.6060 -14.5124 -0.3742 1.5206 27.8585 0.4198 0.4231 11.4528 0.0000 -0.0000 0.0000 -84.8358 -6.2560 20.5897 9.1815 -15.4492 -1.2480 -0.0000 0.0000 -0.8169 23.7575 -2.4133 -1.0618 -7.1250 0.0000 -0.0000 -2.1754 27.3415 0.9339 0.0000 -0.0000 0.0000 86.2628 10.3395 9.8447 -13.8040 22.4538 -2.7528 0.0000 0.0000 30.9453 -21.5456 -24.7248 9.3773 7.1250 -0.0000 -0.0000 8.6811 -56.1075 -2.3778
